<?xml version="1.0" standalone="no"?><!DOCTYPE svg PUBLIC "-//W3C//DTD SVG 1.1//EN" "http://www.w3.org/Graphics/SVG/1.1/DTD/svg11.dtd"><svg t="1625736251481" class="icon" viewBox="0 0 1024 1024" version="1.1" xmlns="http://www.w3.org/2000/svg" p-id="8309" width="40" height="40" xmlns:xlink="http://www.w3.org/1999/xlink"><defs><style type="text/css"></style></defs><path d="M848.512 981.333333H219.904C145.493333 981.333333 85.333333 921.898667 85.333333 848.341333V175.658667C85.333333 102.101333 145.493333 42.666667 219.904 42.666667h628.608A47.36 47.36 0 0 1 896 89.6v844.8c0 26.581333-20.565333 46.933333-47.488 46.933333zM219.904 136.533333a38.954667 38.954667 0 0 0-39.552 39.125334v672.682666c0 21.930667 17.408 39.125333 39.552 39.125334h582.698667V136.533333H219.904z" p-id="8310" fill="#2c2c2c"></path><path d="M132.821333 895.274667A47.36 47.36 0 0 1 85.333333 848.341333c0-73.514667 60.16-132.949333 134.570667-132.949333h630.186667a47.36 47.36 0 0 1 47.488 46.933333c0 26.581333-20.565333 46.933333-47.488 46.933334H219.904c-22.186667 0-39.552 18.773333-39.552 39.082666 0 26.624-22.186667 46.933333-47.530667 46.933334z" p-id="8311" fill="#2c2c2c"></path></svg>