<?xml version="1.0" standalone="no"?><!DOCTYPE svg PUBLIC "-//W3C//DTD SVG 1.1//EN" "http://www.w3.org/Graphics/SVG/1.1/DTD/svg11.dtd"><svg t="1625736308687" class="icon" viewBox="0 0 1024 1024" version="1.1" xmlns="http://www.w3.org/2000/svg" p-id="8747" width="40" height="40" xmlns:xlink="http://www.w3.org/1999/xlink"><defs><style type="text/css"></style></defs><path d="M934.4 981.333333H89.6A46.08 46.08 0 0 1 42.666667 934.485333V89.514667A46.08 46.08 0 0 1 89.6 42.666667h844.8c26.581333 0 46.933333 20.309333 46.933333 46.848v844.970666c0 24.96-20.352 46.848-46.933333 46.848zM136.533333 887.637333h750.933334V136.362667H136.533333v751.274666z" p-id="8748" fill="#2c2c2c"></path><path d="M781.098667 979.754667a46.08 46.08 0 0 1-46.933334-46.848V89.514667A46.08 46.08 0 0 1 781.098667 42.666667c26.581333 0 46.933333 20.309333 46.933333 46.848v843.392c0 25.002667-20.352 46.848-46.933333 46.848zM242.901333 772.053333H89.6A46.08 46.08 0 0 1 42.666667 725.205333a46.08 46.08 0 0 1 46.933333-46.848h153.301333c26.624 0 46.933333 20.266667 46.933334 46.848a46.08 46.08 0 0 1-46.933334 46.848z" p-id="8749" fill="#2c2c2c"></path><path d="M934.4 558.08H89.6A46.08 46.08 0 0 1 42.666667 511.232a46.08 46.08 0 0 1 46.933333-46.848h844.8c26.581333 0 46.933333 20.266667 46.933333 46.848a46.08 46.08 0 0 1-46.933333 46.848zM242.901333 344.106667H89.6A46.08 46.08 0 0 1 42.666667 297.258667a46.08 46.08 0 0 1 46.933333-46.848h153.301333c26.624 0 46.933333 20.266667 46.933334 46.848a46.08 46.08 0 0 1-46.933334 46.848zM934.4 772.053333h-153.301333a46.08 46.08 0 0 1-46.933334-46.848 46.08 46.08 0 0 1 46.933334-46.848H934.4c26.581333 0 46.933333 20.266667 46.933333 46.848a46.08 46.08 0 0 1-46.933333 46.848zM934.4 344.106667h-153.301333a46.08 46.08 0 0 1-46.933334-46.848 46.08 46.08 0 0 1 46.933334-46.848H934.4c26.581333 0 46.933333 20.266667 46.933333 46.848a46.08 46.08 0 0 1-46.933333 46.848z" p-id="8750" fill="#2c2c2c"></path><path d="M242.901333 979.754667a46.08 46.08 0 0 1-46.933333-46.848V89.514667A46.08 46.08 0 0 1 242.901333 42.666667c26.624 0 46.933333 20.309333 46.933334 46.848v843.392c0 25.002667-20.309333 46.848-46.933334 46.848z" p-id="8751" fill="#2c2c2c"></path></svg>