<?xml version="1.0" standalone="no"?><!DOCTYPE svg PUBLIC "-//W3C//DTD SVG 1.1//EN" "http://www.w3.org/Graphics/SVG/1.1/DTD/svg11.dtd"><svg t="1625736451732" class="icon" viewBox="0 0 1024 1024" version="1.1" xmlns="http://www.w3.org/2000/svg" p-id="16709" width="40" height="40" xmlns:xlink="http://www.w3.org/1999/xlink"><defs><style type="text/css"></style></defs><path d="M934.4 981.333333H89.6A46.08 46.08 0 0 1 42.666667 934.485333V89.514667A46.08 46.08 0 0 1 89.6 42.666667h844.8c26.581333 0 46.933333 20.309333 46.933333 46.848v844.970666c0 24.96-20.352 46.848-46.933333 46.848zM136.533333 887.637333h750.933334V136.362667H136.533333v751.274666z" p-id="16710" fill="#2c2c2c"></path><path d="M89.6 981.333333c-12.501333 0-23.466667-4.693333-32.853333-14.08-18.773333-18.730667-18.773333-48.384 0-65.578666L616.832 340.992c15.616-15.616 37.546667-18.773333 56.32-7.808l242.474667 137.386667c21.888 12.544 29.738667 40.661333 17.194666 64.085333-12.501333 21.845333-40.661333 29.653333-64.128 17.152l-211.2-120.234667L122.453333 967.253333c-9.386667 9.386667-20.352 14.037333-32.853333 14.037334zM330.538667 494.037333c-89.173333 0-162.730667-73.386667-162.730667-164.010666a162.432 162.432 0 0 1 162.730667-162.432c89.173333 0 164.266667 73.386667 164.266666 164.010666 0 89.045333-73.557333 162.432-164.266666 162.432z m0-232.704c-37.546667 0-68.864 31.232-68.864 68.693334 0 39.082667 31.317333 70.314667 70.4 70.314666 39.125333 0 70.4-31.232 70.4-70.314666a72.149333 72.149333 0 0 0-71.936-68.693334z" p-id="16711" fill="#2c2c2c"></path></svg>