<?xml version="1.0" standalone="no"?><!DOCTYPE svg PUBLIC "-//W3C//DTD SVG 1.1//EN" "http://www.w3.org/Graphics/SVG/1.1/DTD/svg11.dtd"><svg t="1625970250996" class="icon" viewBox="0 0 1024 1024" version="1.1" xmlns="http://www.w3.org/2000/svg" p-id="22589" width="40" height="40" xmlns:xlink="http://www.w3.org/1999/xlink"><defs><style type="text/css"></style></defs><path d="M512 981.333333C253.013333 981.333333 42.666667 770.986667 42.666667 512S253.013333 42.666667 512 42.666667s469.333333 210.346667 469.333333 469.333333-210.346667 469.333333-469.333333 469.333333z m0-844.501333A375.125333 375.125333 0 0 0 136.832 512 375.125333 375.125333 0 0 0 512 887.168 375.125333 375.125333 0 0 0 887.168 512 375.125333 375.125333 0 0 0 512 136.832z" p-id="22590"></path><path d="M711.338667 695.637333a52.906667 52.906667 0 0 1-26.666667-7.850666l-199.338667-136.533334a49.066667 49.066667 0 0 1-20.437333-39.253333V226.304c0-26.666667 20.437333-47.061333 47.104-47.061333 26.666667 0 47.104 20.394667 47.104 47.061333v260.565333l178.944 122.453334c21.973333 14.122667 26.666667 43.946667 12.544 65.92-9.386667 14.122667-23.552 20.394667-39.253333 20.394666z" p-id="22591"></path></svg>