<?xml version="1.0" standalone="no"?><!DOCTYPE svg PUBLIC "-//W3C//DTD SVG 1.1//EN" "http://www.w3.org/Graphics/SVG/1.1/DTD/svg11.dtd"><svg t="1625035365070" class="icon" viewBox="0 0 1024 1024" version="1.1" xmlns="http://www.w3.org/2000/svg" p-id="8100" width="40" height="40" xmlns:xlink="http://www.w3.org/1999/xlink"><defs><style type="text/css"></style></defs><path d="M89.685333 938.666667c-7.850667 0-14.08-1.536-20.394666-4.608-15.658667-7.68-26.624-24.533333-26.624-41.429334V217.344C42.666667 145.194667 103.765333 85.333333 177.450667 85.333333h670.72c73.6 0 134.741333 59.861333 134.741333 132.010667v452.736c0 72.106667-61.141333 132.010667-134.784 132.010667H293.376l-175.488 127.36c-7.850667 6.144-18.773333 9.216-28.202667 9.216zM177.450667 177.408c-21.973333 0-40.746667 18.432-40.746667 39.936v583.210667l112.810667-81.365334a44.373333 44.373333 0 0 1 28.202666-9.216h570.453334c21.888 0 40.704-18.389333 40.704-39.893333V217.344c0-21.504-18.773333-39.936-40.746667-39.936H177.408z" p-id="8101" fill="#3b4b5e"></path></svg>