<?xml version="1.0" standalone="no"?><!DOCTYPE svg PUBLIC "-//W3C//DTD SVG 1.1//EN" "http://www.w3.org/Graphics/SVG/1.1/DTD/svg11.dtd"><svg t="1625969082612" class="icon" viewBox="0 0 1024 1024" version="1.1" xmlns="http://www.w3.org/2000/svg" p-id="9288" width="40" height="40" xmlns:xlink="http://www.w3.org/1999/xlink"><defs><style type="text/css"></style></defs><path d="M391.424 938.666667c-28.288 0-49.92-21.546667-49.92-49.706667V212.906667c0-24.832 18.304-44.714667 41.6-49.706667L880.469333 85.333333c14.933333-1.664 28.245333 1.664 39.893334 11.605334s16.64 23.210667 16.64 38.101333V812.8c0 28.16-21.632 49.706667-49.92 49.706667-28.245333 0-49.92-21.546667-49.92-49.706667V193.024l-397.525334 61.312v634.624c1.706667 28.16-21.632 49.706667-48.213333 49.706667z" p-id="9289"></path><path d="M888.746667 862.464h-256.128c-28.288 0-49.92-21.546667-49.92-49.706667v-142.506666c0-28.16 21.632-49.706667 49.92-49.706667h256.128c28.288 0 49.92 21.546667 49.92 49.706667v142.506666c0 26.453333-23.296 49.706667-49.92 49.706667z m-206.250667-99.413333h156.373333v-43.093334h-156.373333v43.093334zM391.381333 938.666667H135.253333C106.965333 938.666667 85.333333 917.12 85.333333 888.96v-142.506667c0-28.16 21.632-49.706667 49.92-49.706666h256.128c28.288 0 49.92 21.546667 49.92 49.706666v142.506667A49.92 49.92 0 0 1 391.381333 938.666667zM185.173333 839.253333h156.373334v-43.093333H185.130667v43.093333z" p-id="9290"></path></svg>