<?xml version="1.0" standalone="no"?><!DOCTYPE svg PUBLIC "-//W3C//DTD SVG 1.1//EN" "http://www.w3.org/Graphics/SVG/1.1/DTD/svg11.dtd"><svg t="1625736396910" class="icon" viewBox="0 0 1024 1024" version="1.1" xmlns="http://www.w3.org/2000/svg" p-id="9115" width="40" height="40" xmlns:xlink="http://www.w3.org/1999/xlink"><defs><style type="text/css"></style></defs><path d="M519.168 507.733333c-6.058667 0-12.117333-1.493333-16.64-2.986666L90.709333 338.176c-18.176-6.016-28.757333-22.698667-28.757333-42.368 0-19.669333 10.581333-34.816 28.757333-42.410667l410.282667-164.992a42.410667 42.410667 0 0 1 33.28 0l411.818667 164.992c16.64 7.594667 28.757333 24.234667 28.757333 42.410667 0 18.176-10.581333 34.816-28.757333 42.410667l-410.282667 164.992a39.466667 39.466667 0 0 1-16.64 4.565333zM228.48 295.850667l289.152 116.565333 289.194667-116.565333L519.168 179.2 228.48 295.808z" p-id="9116" fill="#2c2c2c"></path><path d="M519.168 930.133333c-6.058667 0-12.117333-1.493333-16.64-2.986666L90.709333 762.026667c-16.64-7.552-28.757333-24.192-28.757333-42.368V295.765333c0-25.728 19.626667-45.397333 45.397333-45.397333 25.728 0 45.44 19.669333 45.44 45.397333v392.106667l366.378667 146.901333 366.378667-146.858666v-392.106667c0-25.770667 19.669333-45.44 45.397333-45.44 25.770667 0 45.44 19.669333 45.44 45.397333v423.936c0 18.176-10.581333 34.816-28.757333 42.368l-411.818667 165.034667c-6.058667 1.536-10.581333 3.029333-16.64 3.029333z" p-id="9117" fill="#2c2c2c"></path><path d="M519.168 930.133333a44.629333 44.629333 0 0 1-45.44-45.44V460.8c0-25.728 19.669333-45.44 45.44-45.44 25.728 0 45.397333 19.712 45.397333 45.44v423.893333c0 25.770667-21.205333 45.44-45.397333 45.44zM734.122667 422.954667c-6.058667 0-10.581333-1.536-16.64-3.029334L304.213333 254.890667c-22.698667-9.088-34.816-36.309333-25.728-59.050667 10.581333-22.698667 36.309333-34.816 59.050667-25.728l411.776 165.034667c22.741333 9.088 34.816 36.309333 25.770667 59.050666a42.24 42.24 0 0 1-40.917334 28.757334z" p-id="9118" fill="#2c2c2c"></path></svg>