<?xml version="1.0" standalone="no"?><!DOCTYPE svg PUBLIC "-//W3C//DTD SVG 1.1//EN" "http://www.w3.org/Graphics/SVG/1.1/DTD/svg11.dtd"><svg t="1625617129548" class="icon" viewBox="0 0 1024 1024" version="1.1" xmlns="http://www.w3.org/2000/svg" p-id="9842" width="200" height="200" xmlns:xlink="http://www.w3.org/1999/xlink"><defs><style type="text/css"></style></defs><path d="M327.4 920.1h369.2c11.3 0 20.8 9.4 20.8 20.8v20.8c0 11.3-9.4 20.8-20.8 20.8H327.4c-11.3 0-20.8-9.4-20.8-20.8v-20.8c0.1-11.4 9.5-20.8 20.8-20.8z m410-396.9c-34 0-61.6 28.3-61.6 62.9 0 34.6 27.7 62.9 61.6 62.9 34 0 61.6-28.3 61.6-62.9 0.1-34.6-27.6-62.9-61.6-62.9z m61.7-271.6c0-23.3-18.2-42.1-40.9-42.1H265.8c-22.6 0-40.9 18.9-40.9 42.1v167.3c0 23.3 18.2 42.1 40.9 42.1h492.4c22.6 0 40.9-18.9 40.9-42.1V251.6zM285.9 649c34 0 61.6-28.3 61.6-62.9 0-34.6-27.7-62.9-61.6-62.9-34 0-61.6 28.3-61.6 62.9 0.6 34.6 27.6 62.9 61.6 62.9z m616.9 369.8c-18.9 10.7-42.1 4.4-52.8-14.5l-84.3-148.4c-6.9 1.3-14.5 1.9-21.4 1.9H280.2c-7.5 0-14.5-0.6-21.4-1.9l-84.3 148.4c-10.7 18.9-34.6 25.2-52.8 14.5-18.9-10.7-25.2-35.2-14.5-54.1l78.6-138.4c-41.5-30.2-66.7-80.5-62.9-136.5l29.6-450.3c5-75.5 52.8-135.2 134-135.2h123.3C409.8 46.5 455.7 0 512.3 0s102.5 46.5 102.5 104.4h143.4c81.8 0 108.2 59.7 113.2 135.2L901 689.9c3.8 56-21.4 106.3-62.9 136.5l78.6 138.4c10.7 19.4 4.4 43.3-13.9 54z m0 0" p-id="9843" fill="#ffffff"></path></svg>