<?xml version="1.0" standalone="no"?><!DOCTYPE svg PUBLIC "-//W3C//DTD SVG 1.1//EN" "http://www.w3.org/Graphics/SVG/1.1/DTD/svg11.dtd"><svg t="1625736546753" class="icon" viewBox="0 0 1024 1024" version="1.1" xmlns="http://www.w3.org/2000/svg" p-id="17169" width="40" height="40" xmlns:xlink="http://www.w3.org/1999/xlink"><defs><style type="text/css"></style></defs><path d="M823.04 970.24a45.013333 45.013333 0 0 1-45.824-45.781333v-131.413334c0-102.314667-44.288-145.066667-145.109333-145.066666H364.757333c-102.314667 0-145.066667 44.288-145.066666 145.066666v131.413334c0 25.941333-19.882667 45.824-45.866667 45.824A45.013333 45.013333 0 0 1 128 924.458667v-131.413334c0-152.746667 84.053333-236.757333 236.8-236.757333h267.306667c152.746667 0 236.8 84.053333 236.8 236.8v131.370667c0 24.448-19.882667 45.824-45.866667 45.824zM497.664 518.101333a232.106667 232.106667 0 0 1-232.192-232.192 232.106667 232.106667 0 0 1 232.192-232.192 232.106667 232.106667 0 0 1 232.192 232.192 232.106667 232.106667 0 0 1-232.192 232.192z m0-372.736A140.16 140.16 0 0 0 357.12 285.909333a140.16 140.16 0 0 0 140.544 140.544 140.16 140.16 0 0 0 140.544-140.544 140.16 140.16 0 0 0-140.544-140.544z" p-id="17170" fill="#2c2c2c"></path></svg>